<?xml version="1.0" encoding="UTF-8" standalone="no"?>
<!DOCTYPE svg PUBLIC "-//W3C//DTD SVG 1.1//EN"
 "http://www.w3.org/Graphics/SVG/1.1/DTD/svg11.dtd">
<!-- Generated by graphviz version 5.0.0 (20220707.1540)
 -->
<!-- Title: UmlClassDiagram Pages: 1 -->
<svg width="432pt" height="372pt"
 viewBox="0.00 0.00 431.95 371.60" xmlns="http://www.w3.org/2000/svg" xmlns:xlink="http://www.w3.org/1999/xlink">
<g id="graph0" class="graph" transform="scale(1 1) rotate(0) translate(4 367.6)">
<title>UmlClassDiagram</title>
<polygon fill="white" stroke="transparent" points="-4,4 -4,-367.6 427.95,-367.6 427.95,4 -4,4"/>
<!-- 0 -->
<g id="node1" class="node">
<title>0</title>
<polygon fill="#f2f2f2" stroke="black" points="96.84,-229.5 96.84,-363.1 327.1,-363.1 327.1,-229.5 96.84,-229.5"/>
<text text-anchor="middle" x="211.97" y="-346.5" font-family="Times,serif" font-size="14.00">&lt;&lt;Library&gt;&gt;</text>
<text text-anchor="middle" x="211.97" y="-329.7" font-family="Times,serif" font-size="14.00">SafeMath</text>
<text text-anchor="middle" x="211.97" y="-312.9" font-family="Times,serif" font-size="14.00">contracts/SafeMath.sol</text>
<polyline fill="none" stroke="black" points="96.84,-304.7 327.1,-304.7 "/>
<text text-anchor="start" x="104.84" y="-288.1" font-family="Times,serif" font-size="14.00">Internal:</text>
<text text-anchor="start" x="104.84" y="-271.3" font-family="Times,serif" font-size="14.00"> &#160;&#160;&#160;add(a: uint256, b: uint256): uint256</text>
<text text-anchor="start" x="104.84" y="-254.5" font-family="Times,serif" font-size="14.00"> &#160;&#160;&#160;sub(a: uint256, b: uint256): uint256</text>
<text text-anchor="start" x="104.84" y="-237.7" font-family="Times,serif" font-size="14.00"> &#160;&#160;&#160;div(a: uint256, b: uint256): uint256</text>
</g>
<!-- 1 -->
<g id="node2" class="node">
<title>1</title>
<polygon fill="#f2f2f2" stroke="black" points="0,-0.5 0,-192.5 423.95,-192.5 423.95,-0.5 0,-0.5"/>
<text text-anchor="middle" x="211.97" y="-175.9" font-family="Times,serif" font-size="14.00">Splitter</text>
<text text-anchor="middle" x="211.97" y="-159.1" font-family="Times,serif" font-size="14.00">contracts/Splitter.sol</text>
<polyline fill="none" stroke="black" points="0,-150.9 423.95,-150.9 "/>
<text text-anchor="start" x="8" y="-134.3" font-family="Times,serif" font-size="14.00">Public:</text>
<text text-anchor="start" x="8" y="-117.5" font-family="Times,serif" font-size="14.00"> &#160;&#160;balances: mapping(address=&gt;uint256)</text>
<polyline fill="none" stroke="black" points="0,-109.3 423.95,-109.3 "/>
<text text-anchor="start" x="8" y="-92.7" font-family="Times,serif" font-size="14.00">Public:</text>
<text text-anchor="start" x="8" y="-75.9" font-family="Times,serif" font-size="14.00"> &#160;&#160;&#160;&lt;&lt;payable&gt;&gt; split(_first: address, _second: address): (_status: bool)</text>
<text text-anchor="start" x="8" y="-59.1" font-family="Times,serif" font-size="14.00"> &#160;&#160;&#160;&lt;&lt;event&gt;&gt; Splitted(_first: address, _second: address, _value: uint256)</text>
<text text-anchor="start" x="8" y="-42.3" font-family="Times,serif" font-size="14.00"> &#160;&#160;&#160;&lt;&lt;event&gt;&gt; Transfered(_to: address, _value: uint256)</text>
<text text-anchor="start" x="8" y="-25.5" font-family="Times,serif" font-size="14.00"> &#160;&#160;&#160;constructor()</text>
<text text-anchor="start" x="8" y="-8.7" font-family="Times,serif" font-size="14.00"> &#160;&#160;&#160;withdraw(_amount: uint256): (_status: bool)</text>
</g>
<!-- 1&#45;&gt;0 -->
<g id="edge1" class="edge">
<title>1&#45;&gt;0</title>
<path fill="none" stroke="black" stroke-dasharray="5,2" d="M211.97,-192.63C211.97,-201.6 211.97,-210.6 211.97,-219.35"/>
<polygon fill="black" stroke="black" points="208.47,-219.49 211.97,-229.49 215.47,-219.49 208.47,-219.49"/>
</g>
</g>
</svg>
